# xmcd
#
# Track frame offsets:
#	150
#	15075
#	30525
#	45600
#	62400
#	81450
#	94875
#	110625
#	131775
#	148125
#	166275
#	181800
#	196275
#	208425
#	230175
#
# Disc length: 3387 seconds
#
# Revision: 1
# Processed by: cddbd v1.5.1PL0 Copyright (c) Steve Scherf et al.
# Submitted via: audiograbber 1.83.01
#
DISCID=d60d390f
DTITLE=Various Artist - Dkg3062
DYEAR=1900
DGENRE=Karaoke
TTITLE0=J C Chasez - Do It 'Til Your Satisfied
TTITLE1=Chilites - Oh Girl
TTITLE2=Temptations - Too Busy Thinking About My Baby
TTITLE3=Earth, Wind and Fire - September
TTITLE4=Earth, Wind and Fire - Got To Get You Into My Life
TTITLE5=Earth, Wind and Fire - Shining Star
TTITLE6=Don Williams - Too Late To Turn Back Now
TTITLE7=Earth, Wind and Fire - Shining Star
TTITLE8=Manhattans - Kiss And Say Goodbye
TTITLE9=Gloria Estefan - Love On A Two Way Street
TTITLE10=O'jays - Use Ta Be My Girl
TTITLE11=O'jays - Back Stabbers
TTITLE12=O'kaysions - Girl Watcher
TTITLE13=Stylistics - You Make Me Feel Brand New
TTITLE14=Bebe Winans - Oh Happy Day
EXTD=
EXTT0=
EXTT1=
EXTT2=
EXTT3=
EXTT4=
EXTT5=
EXTT6=
EXTT7=
EXTT8=
EXTT9=
EXTT10=
EXTT11=
EXTT12=
EXTT13=
EXTT14=
PLAYORDER=
